<?xml version="1.0" encoding="utf-8"?>
<!-- Generator: Adobe Illustrator 24.3.0, SVG Export Plug-In . SVG Version: 6.00 Build 0)  -->
<svg version="1.1" id="Layer_1" xmlns="http://www.w3.org/2000/svg" xmlns:xlink="http://www.w3.org/1999/xlink" x="0px" y="0px"
	 viewBox="0 0 1254 1254" style="enable-background:new 0 0 1254 1254;" xml:space="preserve">
<style type="text/css">
	.st0{fill:#FFFFFF;}
</style>
<g>
	<path class="st0" d="M509.25,589.28c-0.98-0.11-1.79-0.28-2.6-0.28c-23.67,0-47.33,0.03-71,0c-2.14,0-3.83,0.77-5.49,1.99
		c-14.93,10.91-29.89,21.78-44.83,32.69c-27.59,20.13-55.16,40.29-82.78,60.39c-1.4,1.02-2.62,2.6-4.92,2.4
		c-1.07-1.83-2.2-3.67-3.24-5.55c-16.18-29.29-32.41-58.56-48.45-87.94c-1.7-3.11-3.66-4.08-7.03-4.07c-23,0.13-46,0.16-69,0.01
		c-3.67-0.02-5.51,1.02-7,4.57c-25.83,61.39-51.82,122.72-77.77,184.06c-0.89,2.12-1.68,4.28-2.44,6.19
		c0.82,1.13,1.7,1.04,2.49,1.04c18.33,0.02,36.67-0.03,55,0.06c2.49,0.01,3.51-1.2,4.37-3.21c7.74-18.06,15.48-36.12,23.32-54.14
		c10.49-24.12,21.08-48.19,31.63-72.28c0.57-1.3,0.9-2.79,2.95-3.85c21.06,38.04,42.08,76,63.51,114.71
		c13.17-9.65,25.8-18.87,38.38-28.14c12.74-9.39,25.45-18.83,38.17-28.25c12.59-9.32,25.15-18.66,37.76-27.96
		c12.59-9.29,25.06-18.76,37.93-27.66c0.35,0.29,0.69,0.58,1.04,0.88c-17.59,43.01-35.18,86.02-52.71,128.89
		c1.18,1.04,2.22,0.95,3.19,0.95c18.17,0.02,36.33-0.02,54.5,0.07c2.45,0.01,3.54-1.09,4.38-3.16c2.62-6.48,5.33-12.92,8.05-19.35
		c23.57-55.63,47.15-111.25,70.71-166.89C508.22,593.55,509.46,591.72,509.25,589.28z"/>
	<path class="st0" d="M465.16,821.41c-0.79,2.04-1.2,3.76-0.78,6.2c4.74,0,9.5,0,15.09,0c-2.48,12-4.75,23.03-7.02,34.01
		c6.87,2,8.23,1.26,9.44-4.73c1.68-8.31,3.33-16.63,5.01-24.94c0.84-4.15,0.86-4.16,5.17-4.24c2.17-0.04,4.33,0,6.5-0.05
		c5.34-0.11,5.6-0.42,5.26-6.24C490.93,821.41,478.02,821.41,465.16,821.41z"/>
	<path class="st0" d="M622.91,821.67c-2.72,13.22-5.49,26.62-8.32,40.35c7.9,1.25,8.07,1.16,9.59-5.79
		c2.19-10.02,4.36-20.05,6.47-30.08c0.33-1.55,0.87-3.24-0.61-4.94C627.92,821.18,625.64,820.76,622.91,821.67z"/>
	<path class="st0" d="M567.47,826.48c-1.2-5.17-1.14-4.89-6.49-5.3c-4.57-0.35-7.21,1.37-9.57,5.23
		c-6.59,10.76-13.62,21.26-20.43,31.89c-0.75,1.17-2,2.23-1.63,3.89c7.12,1.36,7.67,1.14,11.1-4.37c0.09-0.14,0.18-0.28,0.24-0.43
		c1.23-2.74,3.25-3.84,6.32-3.7c4.64,0.22,9.3,0.05,13.96,0.11c4.08,0.05,4.08,0.08,5.16,4.28c1.22,4.74,1.41,4.88,6.42,4.73
		c0.82-0.02,1.67,0.03,2.78-0.86c0.26-1.74-0.25-3.32-0.63-4.92C572.28,846.84,569.83,836.67,567.47,826.48z M548.56,846.35
		c3.97-6.4,7.41-11.94,11.52-18.57c2.26,6.68,3.42,12.28,4.41,18.57C559.22,846.91,554.43,846.81,548.56,846.35z"/>
	<path class="st0" d="M388.92,821.19c-2.86,14-5.58,27.29-8.25,40.34c1.49,1.36,2.88,1.08,4.18,1.08
		c9.16,0.02,18.32,0.02,27.48-0.03c4.94-0.02,5.29-0.47,5.17-6.37c-8.81-0.72-17.75,0.22-26.51-0.65c-0.54-2.58,0.11-4.48,0.55-6.4
		c1-4.31,1.01-4.33,5.61-4.37c4.5-0.04,8.99,0.02,13.49-0.02c4.92-0.04,5.46-0.76,4.59-6.16c-6.95-0.98-14.12,0.65-20.96-0.75
		c-0.62-2.48,0.51-4.34,0.64-6.31c0.18-2.86,1.64-3.96,4.56-3.89c6.32,0.16,12.66,0.05,18.98,0.02c5.45-0.02,5.45-0.04,6.13-6.58
		C412.68,821.15,400.84,820.94,388.92,821.19z"/>
	<path class="st0" d="M538.46,603.29c-6.45,9.4-9.37,20.47-14,30.91c2.55,1.03,4.73,0.67,6.83,0.67
		c68.12,0.02,136.25,0.02,204.37,0.02c23.15,0,46.3,0.01,69.46,0.02c2.49,0,4.75,0,6.84-2.08c13.56-13.52,27.28-26.88,40.92-40.33
		c0.86-0.85,2.29-1.47,1.93-3.53c-3.45,0-6.93,0-10.41,0c-68.79-0.02-137.58-0.04-206.37-0.04c-24.32,0-48.64,0.01-72.95,0.1
		C553.74,589.08,544.78,594.09,538.46,603.29z"/>
	<path class="st0" d="M178.64,463.98c16.12-1.03,32.23-2.3,48.37-2.95c28.97-1.16,57.95-1.99,86.94-1.89
		c40.32,0.15,80.62,1.69,120.91,2.99c14.98,0.49,29.96,1.27,44.93,2.04c15.8,0.81,31.59,1.78,47.39,2.67
		c13.63,0.77,27.27,1.47,40.9,2.33c17.95,1.12,35.88,2.52,53.83,3.47c5.7,0.3,11.39,1.06,17.13,0.83
		c-54.45-9.23-109.23-16.08-164.14-22.89c4.59-2.71,10.02-3.07,14.53-5.51c-0.12-1.17-0.84-1.63-1.45-2.17
		c-12.72-11.39-26.86-20.75-41.47-29.48c-1.77-1.05-3.28-1.09-5.13-0.28c-4.87,2.14-9.85,4.04-14.73,6.17
		c-9.42,4.11-18.8,8.31-28.84,12.75c13.26,5.01,25.75,9.74,38.24,14.47c0.08,0.03,0.11,0.29,0.11,0.44c0,0.67-0.56-0.06,0.15,0.77
		c-5.06-0.29-9.85-0.46-14.62-0.84c-21.75-1.75-43.55-2.84-65.34-3.45c-27.99-0.79-55.96,0.03-83.86,2.6
		c-23.72,2.19-47.31,5.16-70.58,10.34c-10.05,2.24-19.98,5-29.96,7.52c0.09,0.27,0.17,0.55,0.26,0.82
		C174.36,464.48,176.5,464.12,178.64,463.98z"/>
	<path class="st0" d="M119.89,840.59c1.62,1.3,3.16,1.01,4.61,1.03c28.8,0.45,57.53,2.63,86.32,3.41
		c10.65,0.29,21.28,1.04,31.92,1.57c6.65,0.33,13.32,0.16,19.96,0.88c1.61,0.17,3.57,0.47,4.15-1.73c0.82-3.15,2.17-6.22,1.95-10.19
		C219.11,837.24,169.67,838.91,119.89,840.59z"/>
	<path class="st0" d="M93.04,545.59c9.7-16.76,24.31-28.06,41.29-36.54c23.59-11.79,48.88-17.2,75-19.05
		c30.83-2.19,61.17,1.02,90.98,9.12c18.38,4.99,35.77,12.45,52.95,20.81c-0.61-0.53-1.22-1.06-1.84-1.58
		c-19.35-16.2-41.55-27.03-65.66-33.85c-37.77-10.68-76.05-12.37-114.68-5.19c-18.82,3.5-36.83,9.21-52.81,20.09
		c-14.69,10-25.2,23.14-29.34,40.76c-1.17,4.98-2.09,10.04-1.22,15.8C89.69,552.08,91.21,548.75,93.04,545.59z"/>
	<path class="st0" d="M1026.55,837.97c-14.3-0.64-28.61-0.53-42.9-1.46c-6.97-0.45-13.97-0.33-20.96-0.44
		c-1.63-0.02-3.6-0.34-4.1,1.84c-0.71,3.14-1.96,6.25-1.36,9.94c49.94-2.08,99.59-3.83,149.07-7.26c-1.31-0.09-2.62-0.21-3.94-0.25
		C1077.1,839.59,1051.81,839.1,1026.55,837.97z"/>
	<path class="st0" d="M1107.14,588.96c-9.33,0-18.66,0.01-27.99,0.01c-50.82,0-101.65,0.12-152.47-0.06
		c-16.82-0.06-32.25,4.36-46.54,12.86c-22.24,13.23-36.88,32.75-45.89,56.73c-2.94,7.82-5.24,15.81-4.85,24.3
		c0.49,10.84,5.58,18.61,15.67,22.88c5.61,2.37,11.51,3.13,17.58,3.12c41.32-0.04,82.65-0.01,123.97,0c2,0,4.01-0.09,5.99,0.12
		c4.17,0.45,6.24,3.27,5.18,7.33c-1.51,5.83-3.74,11.4-7.27,16.34c-4.03,5.65-9.47,8.74-16.54,8.69c-4.67-0.03-9.33,0.01-14,0.01
		c-47.32-0.01-94.65,0.03-141.97-0.09c-3.81-0.01-6.49,1.16-9.19,3.81c-10.47,10.26-21.22,20.24-31.8,30.39
		c-2.95,2.84-5.65,5.94-8.96,9.44c2.58,0,4.69,0,6.8,0c66.82-0.01,133.64-0.06,200.46,0.01c19.63,0.02,36.9-6.41,52.19-18.4
		c18.03-14.14,29.64-32.67,36.18-54.44c2.01-6.7,3.19-13.61,2.32-20.71c-0.93-7.67-4.28-13.9-10.62-18.46
		c-6.78-4.88-14.52-6.48-22.66-6.49c-31.33-0.05-62.65-0.02-93.98-0.02c-10.33,0-20.66,0.06-30.99-0.01
		c-5.79-0.04-7.79-2.49-6.83-8.22c0.67-4,2.52-7.57,4.39-11.1c4.31-8.11,11.11-12.1,20.3-12.07c6,0.02,12-0.01,18,0
		c41.16,0,82.32,0,123.47,0.03c2.88,0,5.38-0.23,7.68-2.56c13.23-13.4,26.63-26.62,39.93-39.95c0.82-0.83,2.23-1.46,1.91-3.48
		C1113.44,588.96,1110.29,588.96,1107.14,588.96z"/>
	<path class="st0" d="M1134.95,544.06c-28.3-20.3-60.26-31.07-94.27-36.51c-0.41,1.23-0.02,1.78,0.26,2.39
		c4.35,9.4,9.67,18.25,15.78,26.59c6.76,9.25,14.73,17.19,25.27,22.2c7.25,3.45,14.79,5.98,22.51,8.14
		c13.78,3.86,27.83,6.34,42.62,8.88c-1.01-0.75-1.35-1.2-1.78-1.3c-7.79-1.86-15.21-4.83-22.71-7.56
		c-11.43-4.17-22.78-8.52-33.25-14.82c-8.09-4.86-14.11-11.61-18-20.2c-0.78-1.72-2.1-3.5-0.94-5.59
		C1078.88,524.82,1105.02,532.18,1134.95,544.06z"/>
	<path class="st0" d="M914.87,821.22c-7.31-0.27-14.65-0.28-21.96-0.03c-5.71,0.2-9.56,3.52-10.9,9.24
		c-1.68,7.12-3.17,14.29-4.39,21.5c-1.19,7.04,1.65,10.39,8.89,10.61c6.49,0.2,12.98,0.06,19.47-0.03c1.48-0.02,2.97-0.37,4.43-0.7
		c2.78-0.63,4.92-2.24,5.83-4.94c1.85-5.49,2.94-11.16,3.66-17.56c-5.18,0-9.96-0.04-14.75,0.01c-4.91,0.05-4.91,0.09-5.26,5.87
		c3.06,1.04,6.52-0.15,10.1,1.09c-0.27,2.1-0.46,3.74-0.71,5.38c-0.42,2.72-2.15,4.13-4.79,4.19c-4.82,0.11-9.66,0.22-14.47-0.03
		c-3.37-0.18-4.38-1.64-3.78-5.02c1.11-6.22,2.34-12.41,3.68-18.58c0.74-3.42,1.99-4.42,5.53-4.53c4.49-0.13,8.99-0.01,13.48-0.04
		c2.28-0.01,4.06,0.23,4.95,3c0.8,2.48,3.39,1.35,5.26,1.36c1.94,0.01,2.38-1.5,2.64-3.05
		C922.51,824.61,919.93,821.41,914.87,821.22z"/>
	<path class="st0" d="M1175.67,614.37c-1.83,12.17-4.41,24.18-6.85,36.3c10.05-17.98,17.97-36.7,21.32-57.21
		c2.04-12.49-0.37-23.78-7.06-34.38c-6.36-10.08-14.26-18.86-22.87-27.01c-18.56-17.55-39.71-31.36-62.52-42.68
		c-32.76-16.26-67.73-24.8-103.83-29.1c-24.67-2.94-49.45-4.08-74.29-4.17c-5.17-0.02-10.33-0.12-15.5-0.02
		c-3.14,0.07-5.8-0.7-8.32-2.68c-4.19-3.29-8.59-6.31-12.93-9.41c-33.22-23.72-67.14-46.29-103.3-65.41
		c-45.16-23.89-92.89-37.09-144.2-36.27c-22.19,0.35-44.22,2.57-66.1,6.26c-30.7,5.17-61.06,11.97-91.08,20.22
		c-58.31,16.03-115.32,35.78-170.57,60.44c-2.02,0.9-4.26,1.53-6.45,3.59c18.87,0,37.03-0.13,55.18,0.07
		c5.78,0.06,10.9-1.03,16.21-3.59c35.42-17.11,72.05-31.15,109.79-42.29c42.37-12.5,85.12-23.08,129.31-26.84
		c23.01-1.96,45.93-1.51,68.77,1.95c29.27,4.44,56.73,14.38,83.08,27.6c37.2,18.66,71.39,42.1,104.89,66.6
		c0.86,0.63,2.13,1.02,2.22,3.18c-24.7,1.43-49.42,2.67-74.08,4.73c-24.72,2.06-49.42,4.3-74.05,7.26c4.18,0.23,8.34,0.24,12.5,0.23
		c60.15-0.08,120.3-0.06,180.41,2.86c30.45,1.48,60.82,3.65,91.01,8.02c25.78,3.73,51.08,9.29,75.56,18.29
		c25.98,9.55,50.21,22.31,71.66,39.99c8.26,6.81,15.86,14.25,21.35,23.61c2.65,4.51,4.43,9.31,5.04,14.52
		c1.13,9.58-2.76,16.11-11.71,19.63c-2.78,1.1-5.58,2.18-8.38,3.22c-8.49,3.15-14.15,9.13-17.5,17.43
		c-7.35,18.23-14.55,36.52-20.59,55.24c-0.58,1.8-1.78,3.6-0.9,6c9.16,0.59,18.26,0.36,27.29-1.38c6.56-1.27,12.94-3.15,18.8-6.46
		c2.13-1.2,4.24-2.47,5.39-4.75c-0.86-0.73-1.52-0.46-2.16-0.32c-7.37,1.64-14.85,1.86-22.36,1.64c-2.52-0.07-5.01-0.37-7.38-1.18
		c-2.9-0.99-3.89-2.87-3.16-5.82c0.52-2.1,1.23-4.15,1.89-6.21c3.09-9.67,5.7-19.5,9.62-28.9c2.18-5.22,5.26-9.69,10.08-12.7
		c4.1-2.56,8.54-4.5,13.21-5.82c3.36-0.94,4.23-0.21,3.96,3.25C1176.04,612.74,1175.79,613.55,1175.67,614.37z"/>
	<path class="st0" d="M837.49,821.14c-5.13-0.22-5.22-0.16-6.2,4.78c-0.72,3.58-1.2,7.23-2.16,10.74c-1.06,3.9-1.05,8.1-2.81,11.86
		c-1.96-0.67-2.32-2.27-3.07-3.49c-4.28-6.93-8.49-13.91-12.73-20.86c-0.85-1.39-1.45-3.13-3.55-3.02
		c-2.43,0.12-4.96-0.57-7.33,0.72c-2.73,13.37-5.67,26.61-7.89,39.97c7.34,1.57,7.92,1.15,9.17-5.26c1.42-7.32,2.99-14.6,4.56-22.2
		c2.38,0.62,2.73,2.25,3.49,3.44c2.23,3.51,4.34,7.09,6.47,10.66c2.3,3.86,4.68,7.67,6.81,11.61c1.92,3.54,5.1,2.45,7.95,2.42
		c2.89-0.03,2.59-2.5,2.97-4.38c2.17-10.74,4.36-21.48,6.5-32.23c0.28-1.43,0.65-2.92-0.28-4.47
		C838.77,821.34,838.13,821.16,837.49,821.14z"/>
	<path class="st0" d="M675.87,855.38c2.33-11.63,4.53-22.61,6.88-34.31c-2.33,0-3.65,0.1-4.96-0.02c-2.76-0.26-3.75,1.2-4.25,3.69
		c-2.24,11.23-4.61,22.44-6.88,33.67c-0.25,1.23-0.75,2.6,0.76,4.21c9.05,0,18.5,0.02,27.94-0.01c5.28-0.02,5.54-0.33,5.51-6.51
		C692.77,855.35,684.49,856.67,675.87,855.38z"/>
	<path class="st0" d="M776.32,742.2c-0.13-0.34-0.26-0.68-0.38-1.01c-76.52,0-153.05,0-229.28,0c-0.54-1.33-0.46-1.96-0.19-2.6
		c3.86-9.04,7.75-18.07,11.54-27.13c0.84-2.01,2.18-2.66,4.26-2.64c6.5,0.05,13-0.04,19.5-0.04c49.33-0.01,98.66-0.02,148-0.01
		c2.86,0,5.41-0.13,7.75-2.43c12.58-12.4,25.34-24.62,38-36.93c0.73-0.71,2.09-1.26,1.37-3.08c-5.4,0-10.88,0-16.36,0
		c-81.5,0-163,0.03-244.49-0.08c-3.45,0-5.05,1.15-6.25,4.23c-3.89,9.93-7.97,19.78-12.09,29.61
		c-10.99,26.27-22.01,52.53-33.52,78.58c-0.79,1.79-1.98,3.49-1.78,5.78c2.45,0.71,4.96,0.4,7.42,0.4
		c30.17,0.03,60.33,0.01,90.5,0.01c55.83,0,111.66,0,167.5,0.01c2.84,0,5.36-0.04,7.72-2.41c12.02-12.02,24.26-23.81,36.41-35.7
		C773.44,745.28,774.86,743.72,776.32,742.2z"/>
	<path class="st0" d="M747.05,827.05c-0.76,3.74-1.64,7.45-2.41,11.19c-1.6,7.77-3.16,15.55-4.8,23.65c7.6,1.37,7.75,1.3,9.14-5.1
		c2.21-10.22,4.38-20.44,6.54-30.67c0.3-1.43,0.8-2.89,0.09-4.34C748.71,820.16,748.42,820.35,747.05,827.05z"/>
</g>
<path class="st0" d="M331.01,821.86c-7.82-0.13-15.64,0.1-23.45-0.06c-3-0.06-3.98,1.2-4.51,3.94c-2.02,10.45-4.27,20.85-6.4,31.27
	c-0.36,1.77-0.9,3.55-0.27,5.63c1.32,0.82,2.5,0.74,3.66,0.74c7.49,0.01,14.97,0.05,22.46-0.02c1.64-0.01,3.3-0.34,4.93-0.64
	c4.74-0.87,7.9-3.77,8.99-8.31c1.7-7.11,3.21-14.29,4.25-21.52C341.75,825.3,338.69,821.99,331.01,821.86z M331.94,832.84
	c-0.76,6.77-2.37,13.38-4,19.98c-0.53,2.15-2.24,3.38-4.37,3.55c-5.93,0.47-11.87,0.67-18.6-0.09c1.56-9.42,3.5-18.37,5.42-27.55
	c6.22-0.47,12.01-0.36,17.79-0.15C330.77,828.68,332.23,830.25,331.94,832.84z"/>
</svg>
